<svg width="664" height="164" viewBox="0 0 664 164" fill="none" xmlns="http://www.w3.org/2000/svg">
<path d="M230.938 38H250.562V134H232.938L230.938 118.75V38ZM188.75 99.6875C188.75 92.8125 189.771 86.7917 191.812 81.625C193.896 76.4167 196.896 72.375 200.812 69.5C204.771 66.5833 209.583 65.125 215.25 65.125C220.5 65.125 224.896 66.6667 228.438 69.75C231.979 72.7917 234.771 76.9375 236.812 82.1875C238.854 87.4375 240.271 93.3958 241.062 100.062V101.188C240.271 107.438 238.854 113.146 236.812 118.312C234.771 123.479 231.979 127.604 228.438 130.688C224.896 133.729 220.458 135.25 215.125 135.25C209.5 135.25 204.729 133.771 200.812 130.812C196.896 127.812 193.896 123.729 191.812 118.562C189.771 113.396 188.75 107.542 188.75 101V99.6875ZM208.312 101C208.312 104.417 208.667 107.521 209.375 110.312C210.125 113.104 211.354 115.333 213.062 117C214.812 118.625 217.167 119.438 220.125 119.438C223 119.438 225.375 118.771 227.25 117.438C229.167 116.104 230.583 114.25 231.5 111.875C232.458 109.458 232.979 106.667 233.062 103.5V97.75C233.021 95.0417 232.708 92.6458 232.125 90.5625C231.583 88.4375 230.792 86.6667 229.75 85.25C228.708 83.8333 227.396 82.7708 225.812 82.0625C224.229 81.3125 222.375 80.9375 220.25 80.9375C217.333 80.9375 215 81.7708 213.25 83.4375C211.5 85.0625 210.229 87.2917 209.438 90.125C208.688 92.9167 208.312 96.1042 208.312 99.6875V101ZM254.662 99.5625C254.662 92.9792 255.912 87.1042 258.412 81.9375C260.912 76.7292 264.558 72.625 269.35 69.625C274.142 66.625 279.975 65.125 286.85 65.125C293.85 65.125 299.746 66.625 304.537 69.625C309.371 72.625 313.017 76.7292 315.475 81.9375C317.975 87.1042 319.225 92.9792 319.225 99.5625V100.875C319.225 107.417 317.975 113.292 315.475 118.5C313.017 123.708 309.392 127.812 304.6 130.812C299.808 133.771 293.933 135.25 286.975 135.25C280.058 135.25 274.183 133.771 269.35 130.812C264.558 127.812 260.912 123.708 258.412 118.5C255.912 113.292 254.662 107.417 254.662 100.875V99.5625ZM274.225 100.875C274.225 104.333 274.621 107.479 275.412 110.312C276.204 113.146 277.537 115.396 279.412 117.062C281.287 118.729 283.808 119.562 286.975 119.562C290.142 119.562 292.662 118.729 294.537 117.062C296.412 115.396 297.746 113.146 298.537 110.312C299.329 107.479 299.725 104.333 299.725 100.875V99.5625C299.725 96.1875 299.329 93.0833 298.537 90.25C297.746 87.375 296.412 85.0833 294.537 83.375C292.662 81.6667 290.1 80.8125 286.85 80.8125C283.725 80.8125 281.225 81.6667 279.35 83.375C277.517 85.0833 276.204 87.375 275.412 90.25C274.621 93.0833 274.225 96.1875 274.225 99.5625V100.875ZM342.45 134H322.95V66.375H341.262L342.45 80.8125V134ZM334.7 98.25C334.7 91.3333 335.804 85.4167 338.012 80.5C340.221 75.5417 343.304 71.75 347.262 69.125C351.262 66.4583 355.887 65.125 361.137 65.125C365.387 65.125 369.096 65.9583 372.262 67.625C375.471 69.2917 377.971 72.0208 379.762 75.8125C381.596 79.6042 382.512 84.75 382.512 91.25V134H362.887V91.125C362.887 88.4167 362.492 86.3333 361.7 84.875C360.95 83.375 359.804 82.3542 358.262 81.8125C356.762 81.2292 354.929 80.9375 352.762 80.9375C350.512 80.9375 348.575 81.3542 346.95 82.1875C345.325 83.0208 343.971 84.2083 342.887 85.75C341.846 87.25 341.075 89.0417 340.575 91.125C340.075 93.2083 339.825 95.5 339.825 98L334.7 98.25ZM409.55 134H389.988V66.375H409.55V134ZM388.8 49C388.8 46.0833 389.779 43.7083 391.738 41.875C393.738 40 396.383 39.0625 399.675 39.0625C402.967 39.0625 405.592 40 407.55 41.875C409.55 43.7083 410.55 46.0833 410.55 49C410.55 51.875 409.55 54.25 407.55 56.125C405.592 58 402.967 58.9375 399.675 58.9375C396.383 58.9375 393.738 58 391.738 56.125C389.779 54.25 388.8 51.875 388.8 49ZM449.087 135.25C441.921 135.25 435.775 133.771 430.65 130.812C425.567 127.812 421.671 123.833 418.962 118.875C416.254 113.917 414.9 108.458 414.9 102.5V100.125C414.9 93.4167 416.171 87.4167 418.712 82.125C421.254 76.8333 424.9 72.6875 429.65 69.6875C434.442 66.6458 440.192 65.125 446.9 65.125C453.442 65.125 458.942 66.5 463.4 69.25C467.9 72 471.317 75.875 473.65 80.875C475.983 85.8333 477.15 91.6875 477.15 98.4375V106.688H422.962V93.625H458.025V92.0625C457.983 89.8125 457.567 87.8542 456.775 86.1875C455.983 84.4792 454.754 83.1667 453.087 82.25C451.462 81.2917 449.358 80.8125 446.775 80.8125C443.692 80.8125 441.254 81.6875 439.462 83.4375C437.671 85.1458 436.379 87.4583 435.587 90.375C434.837 93.25 434.462 96.5 434.462 100.125V102.5C434.462 105.875 435.087 108.833 436.337 111.375C437.587 113.917 439.4 115.917 441.775 117.375C444.15 118.792 447.004 119.5 450.337 119.5C453.462 119.5 456.4 118.938 459.15 117.812C461.942 116.646 464.337 114.792 466.337 112.25L475.587 123.125C473.504 126.167 470.212 128.958 465.712 131.5C461.212 134 455.671 135.25 449.087 135.25ZM530.688 149.188H473.75V134H530.688V149.188ZM567.038 115.062C567.038 113.854 566.663 112.812 565.913 111.938C565.204 111.062 563.871 110.25 561.913 109.5C559.996 108.708 557.225 107.938 553.6 107.188C549.058 106.188 544.975 104.833 541.35 103.125C537.725 101.375 534.85 99.1458 532.725 96.4375C530.642 93.6875 529.6 90.3542 529.6 86.4375C529.6 82.6458 530.683 79.125 532.85 75.875C535.017 72.625 538.142 70.0208 542.225 68.0625C546.308 66.1042 551.225 65.125 556.975 65.125C562.933 65.125 568.058 66.0625 572.35 67.9375C576.683 69.8125 580.017 72.3958 582.35 75.6875C584.683 78.9792 585.85 82.7708 585.85 87.0625H566.35C566.35 84.5208 565.6 82.5 564.1 81C562.642 79.5 560.246 78.75 556.913 78.75C555.204 78.75 553.683 79.0417 552.35 79.625C551.058 80.2083 550.058 81 549.35 82C548.642 82.9583 548.288 84.1042 548.288 85.4375C548.288 86.6458 548.663 87.7292 549.413 88.6875C550.204 89.6042 551.454 90.4167 553.163 91.125C554.913 91.7917 557.246 92.3958 560.163 92.9375C564.913 93.8125 569.225 95.0417 573.1 96.625C577.017 98.1667 580.142 100.354 582.475 103.188C584.808 105.979 585.975 109.708 585.975 114.375C585.975 118.375 584.788 121.958 582.413 125.125C580.038 128.25 576.683 130.729 572.35 132.562C568.017 134.354 562.913 135.25 557.038 135.25C550.621 135.25 545.204 134.104 540.788 131.812C536.413 129.479 533.079 126.562 530.788 123.062C528.538 119.521 527.413 115.917 527.413 112.25H545.85C545.975 114.417 546.558 116.188 547.6 117.562C548.642 118.938 550.017 119.958 551.725 120.625C553.433 121.25 555.35 121.562 557.475 121.562C559.6 121.562 561.35 121.292 562.725 120.75C564.142 120.208 565.204 119.458 565.913 118.5C566.663 117.5 567.038 116.354 567.038 115.062ZM609.575 134H590.075V66.375H608.388L609.575 80.8125V134ZM601.825 98.25C601.825 91.3333 602.929 85.4167 605.138 80.5C607.346 75.5417 610.429 71.75 614.388 69.125C618.388 66.4583 623.013 65.125 628.263 65.125C632.513 65.125 636.221 65.9583 639.388 67.625C642.596 69.2917 645.096 72.0208 646.888 75.8125C648.721 79.6042 649.638 84.75 649.638 91.25V134H630.013V91.125C630.013 88.4167 629.617 86.3333 628.825 84.875C628.075 83.375 626.929 82.3542 625.388 81.8125C623.888 81.2292 622.054 80.9375 619.888 80.9375C617.638 80.9375 615.7 81.3542 614.075 82.1875C612.45 83.0208 611.096 84.2083 610.013 85.75C608.971 87.25 608.2 89.0417 607.7 91.125C607.2 93.2083 606.95 95.5 606.95 98L601.825 98.25Z" fill="white"/>
<path d="M82.9618 131.584L99.3455 146.873L82.9618 163.338L66.4575 146.873L82.9618 131.584Z" fill="url(#paint0_linear_93_2)"/>
<path d="M82.9652 8.63464L165.196 85.5124L152.983 97.8573L71.927 19.0631L82.9652 8.63464Z" fill="#3DA8D0"/>
<g filter="url(#filter0_f_93_2)">
<path d="M85.7765 32.0849L93.8905 18.5776L82.6855 29.3835L85.7765 32.0849Z" fill="#01429C"/>
</g>
<path d="M82.9651 8.63468L-1.60737e-05 85.602L12.2131 97.9468L93.8558 18.9013L82.9651 8.63468Z" fill="#1F70E0"/>
<path d="M29.8404 70.866L12.3642 78.1185L66.3598 134.581L76.3788 119.413L29.8404 70.866Z" fill="#1F70E0"/>
<path d="M82.6855 99.2354L119.033 131.647L106.944 144.111L71.927 109.187L82.6855 99.2354Z" fill="#3DA8D0"/>
<g filter="url(#filter1_f_93_2)">
<path d="M85.7765 122.391L93.8905 108.884L82.6855 119.689L85.7765 122.391Z" fill="#01429C"/>
</g>
<path d="M83.2845 98.4539L46.4164 131.496L58.5053 143.959L93.8558 109.025L83.2845 98.4539Z" fill="#1F70E0"/>
<path d="M82.8083 53.142L142.378 108.426L130.226 120.829L71.927 63.7199L82.8083 53.142Z" fill="#3DA8D0"/>
<g filter="url(#filter2_f_93_2)">
<path d="M85.7765 76.8518L93.8905 63.3445L82.6855 74.1504L85.7765 76.8518Z" fill="#01429C"/>
</g>
<path d="M83.1262 53.1379L23.4182 107.944L35.5687 120.348L93.8558 63.5581L83.1262 53.1379Z" fill="#1F70E0"/>
<path d="M144.627 71.7105L94.2769 117.599L106.402 130.028L155.291 82.1925L144.627 71.7105Z" fill="#3DA8D0"/>
<defs>
<filter id="filter0_f_93_2" x="80.4855" y="16.3776" width="15.605" height="17.9073" filterUnits="userSpaceOnUse" color-interpolation-filters="sRGB">
<feFlood flood-opacity="0" result="BackgroundImageFix"/>
<feBlend mode="normal" in="SourceGraphic" in2="BackgroundImageFix" result="shape"/>
<feGaussianBlur stdDeviation="1.1" result="effect1_foregroundBlur_93_2"/>
</filter>
<filter id="filter1_f_93_2" x="80.4855" y="106.684" width="15.605" height="17.9073" filterUnits="userSpaceOnUse" color-interpolation-filters="sRGB">
<feFlood flood-opacity="0" result="BackgroundImageFix"/>
<feBlend mode="normal" in="SourceGraphic" in2="BackgroundImageFix" result="shape"/>
<feGaussianBlur stdDeviation="1.1" result="effect1_foregroundBlur_93_2"/>
</filter>
<filter id="filter2_f_93_2" x="80.4855" y="61.1445" width="15.605" height="17.9073" filterUnits="userSpaceOnUse" color-interpolation-filters="sRGB">
<feFlood flood-opacity="0" result="BackgroundImageFix"/>
<feBlend mode="normal" in="SourceGraphic" in2="BackgroundImageFix" result="shape"/>
<feGaussianBlur stdDeviation="1.1" result="effect1_foregroundBlur_93_2"/>
</filter>
<linearGradient id="paint0_linear_93_2" x1="69.9349" y1="147.476" x2="92.345" y2="147.476" gradientUnits="userSpaceOnUse">
<stop stop-color="#1F70E0"/>
<stop offset="1" stop-color="#3DA8D0"/>
</linearGradient>
</defs>
</svg>
